HIERARCHY
ROOT Hips
{
	OFFSET 0.000000 0.000000 0.000000
	CHANNELS 6 Xposition Yposition Zposition Zrotation Yrotation Xrotation 
	JOINT LHipJoint
	{
		OFFSET 0.000000 0.000000 0.000000
		CHANNELS 3 Zrotation Yrotation Xrotation
		JOINT LeftUpLeg
		{
			OFFSET 1.363060 -1.794630 0.839290
			CHANNELS 3 Zrotation Yrotation Xrotation
			JOINT LeftLeg
			{
				OFFSET 2.448110 -6.726130 0.000000
				CHANNELS 3 Zrotation Yrotation Xrotation
				JOINT LeftFoot
				{
					OFFSET 2.562200 -7.039590 0.000000
					CHANNELS 3 Zrotation Yrotation Xrotation
					JOINT LeftToeBase
					{
						OFFSET 0.157640 -0.433110 2.322550
						CHANNELS 3 Zrotation Yrotation Xrotation
						End Site
						{
							OFFSET 0.000000 0.000000 0.000000
						}
					}
				}
			}
		}
	}
	JOINT RHipJoint
	{
		OFFSET 0.000000 0.000000 0.000000
		CHANNELS 3 Zrotation Yrotation Xrotation
		JOINT RightUpLeg
		{
			OFFSET -1.305520 -1.794630 0.839290
			CHANNELS 3 Zrotation Yrotation Xrotation
			JOINT RightLeg
			{
				OFFSET -2.542530 -6.985550 0.000000
				CHANNELS 3 Zrotation Yrotation Xrotation
				JOINT RightFoot
				{
					OFFSET -2.568260 -7.056230 0.000000
					CHANNELS 3 Zrotation Yrotation Xrotation
					JOINT RightToeBase
					{
						OFFSET -0.164730 -0.452590 2.363150
						CHANNELS 3 Zrotation Yrotation Xrotation
						End Site
						{
							OFFSET 0.000000 0.000000 0.000000
						}
					}
				}
			}
		}
	}
}
MOTION
Frames: 25
Frame Time: 0.008333
11.322811 18.044822 2.544469 44.151916 -87.919053 0.945852 -10.451346 0.204274 1.316952 -9.664264 5.048129 -57.936292 -0.954969 2.366452 41.197336 2.297483 13.304914 21.374803 6.657499 0.000000 -58.993000 10.404888 0.249211 -0.231408 10.468202 -11.179084 -57.581323 1.622184 -3.962942 43.064803 -0.301947 -0.561681 18.151602 -0.569100 -0.000000 -82.217100
11.215518 18.162828 2.535723 44.033689 -87.951177 1.486429 -10.373033 0.131771 1.344815 -9.974871 4.959807 -59.385318 -0.978164 2.469465 41.745085 2.396882 13.985843 20.995222 6.990499 0.000000 -57.349000 10.335003 0.332282 -0.134757 10.680349 -10.994743 -59.230753 1.653951 -4.113958 43.757867 -0.332724 -0.938262 17.380876 -0.763500 0.000000 -81.702900
11.111616 18.267031 2.526593 44.273577 -87.946416 1.784564 -10.281255 0.064875 1.389826 -10.316453 4.713777 -61.021073 -1.010877 2.588314 42.333388 2.480223 14.524466 20.126307 7.161900 -0.000001 -56.225400 10.263063 0.421768 -0.005924 10.846317 -10.704377 -61.069036 1.708246 -4.278583 44.440347 -0.356454 -1.286121 16.118251 -0.939000 0.000000 -81.451399
11.011103 18.358416 2.516957 44.868226 -87.903856 1.822736 -10.179126 0.003095 1.446984 -10.674020 4.321241 -62.797669 -1.052951 2.718301 42.915385 2.542894 14.869587 18.917577 7.163500 0.000000 -55.558400 10.191445 0.517671 0.148092 10.950969 -10.331506 -63.055461 1.784669 -4.453471 45.077441 -0.371888 -1.550779 14.512240 -1.064800 -0.000000 -81.192600
10.913641 18.437979 2.506879 45.754567 -87.825991 1.646228 -10.070555 -0.054777 1.511350 -11.032409 3.801036 -64.670056 -1.105104 2.853841 43.442088 2.580355 14.993658 17.534466 7.014001 0.000000 -55.289800 10.121144 0.619233 0.320942 10.985501 -9.898149 -65.148648 1.881244 -4.633093 45.626509 -0.379525 -1.708777 12.745848 -1.132200 -0.000001 -81.001400
10.818735 18.506749 2.496339 46.881504 -87.718280 1.287703 -9.958964 -0.109764 1.578298 -11.381613 3.176732 -66.596707 -1.168321 2.989201 43.866463 2.588718 14.895272 16.141716 6.753700 0.000000 -55.371299 10.053094 0.724879 0.507884 10.944824 -9.422838 -67.313505 1.994162 -4.812257 46.054978 -0.378825 -1.754174 10.991488 -1.146499 -0.000000 -80.911901
10.725695 18.565569 2.485260 48.236147 -87.587976 0.742455 -9.847340 -0.161946 1.643497 -11.719599 2.476344 -68.540372 -1.244103 3.119493 44.148353 2.564667 14.589929 14.877557 6.429199 -0.000000 -55.660000 9.988789 0.831720 0.705947 10.826404 -8.920368 -69.521124 2.118369 -4.987166 46.349300 -0.367029 -1.687000 9.379419 -1.117499 -0.000000 -80.659200
10.633765 18.615082 2.473752 49.764256 -87.443420 0.049534 -9.738890 -0.211324 1.703698 -12.044402 1.724952 -70.464986 -1.333088 3.239761 44.251583 2.508288 14.116082 13.858209 6.090000 0.000000 -56.145300 9.928857 0.936668 0.912583 10.633013 -8.401876 -71.740415 2.248731 -5.152163 46.485110 -0.343379 -1.531949 8.033723 -1.064400 -0.000000 -80.491199
10.541787 18.655471 2.461503 51.556733 -87.290886 -0.893096 -9.635454 -0.255699 1.757516 -12.367070 0.944630 -72.339831 -1.437200 3.346127 44.150888 2.420841 13.513318 13.141677 5.768200 -0.000000 -56.664900 9.875994 1.035622 1.129843 10.361792 -7.873710 -73.950735 2.380407 -5.303803 46.463371 -0.305112 -1.301370 7.003300 -0.997000 0.000000 -80.226601
10.449381 18.687250 2.449240 53.413523 -87.140200 -1.899817 -9.540708 -0.296829 1.800930 -12.677628 0.155857 -74.129154 -1.556159 3.434369 43.823056 2.308452 12.835339 12.765867 5.490199 0.000000 -57.384400 9.827732 1.126936 1.348986 10.029240 -7.344244 -76.108124 2.512474 -5.434594 46.253827 -0.252838 -1.025709 6.338197 -0.928200 -0.000000 -80.345400
10.355079 18.709606 2.435852 55.697375 -86.990564 -3.341948 -9.453956 -0.329067 1.837171 -13.008058 -0.631277 -75.812002 -1.694616 3.502549 43.267606 2.174876 12.111996 12.673498 5.251000 -0.000000 -57.930200 9.789469 1.206688 1.581329 9.615367 -6.814271 -78.212057 2.641358 -5.544263 45.894504 -0.183180 -0.693594 5.963550 -0.850900 -0.000000 -80.237200
10.258736 18.722637 2.422434 58.113810 -86.849231 -4.933202 -9.378493 -0.354788 1.866117 -13.337491 -1.408291 -77.364849 -1.851759 3.547104 42.480535 2.029145 11.387611 12.826159 5.053600 0.000000 -58.560900 9.756770 1.275029 1.815823 9.145645 -6.291821 -80.220317 2.770857 -5.625691 45.359077 -0.097711 -0.322880 5.861220 -0.767900 0.000000 -80.431700
10.159260 18.725230 2.407991 60.982954 -86.711647 -6.998904 -9.313521 -0.368954 1.892687 -13.691060 -2.173981 -78.776024 -2.032445 3.567415 41.479911 1.875938 10.678224 13.112510 4.880100 -0.000001 -59.004600 9.732887 1.331396 2.061589 8.601136 -5.779596 -82.135266 2.899406 -5.678972 44.689412 0.004447 0.100801 5.912961 -0.668900 0.000000 -80.532000
10.056826 18.717206 2.393589 63.983151 -86.582115 -9.221848 -9.260158 -0.373811 1.921145 -14.040710 -2.929060 -80.045306 -2.234918 3.561170 40.282263 1.722154 10.004909 13.459325 4.724300 0.000000 -59.484800 9.713583 1.377577 2.308551 8.011887 -5.284923 -83.932046 3.032619 -5.700826 43.878243 0.122049 0.573780 6.058745 -0.552000 0.000000 -80.801100
9.950980 18.697575 2.378433 67.315594 -86.455195 -11.804688 -9.216528 -0.365433 1.956980 -14.398959 -3.675618 -81.178672 -2.462361 3.529142 38.919760 1.569799 9.364731 13.762061 4.569900 0.000000 -59.817300 9.700756 1.416194 2.561956 7.368610 -4.812374 -85.621581 3.169368 -5.693543 42.970161 0.254428 1.105736 6.189537 -0.411600 0.000000 -80.968600
9.841849 18.665889 2.362897 70.801711 -86.330577 -14.566949 -9.181010 -0.344002 2.006216 -14.748217 -4.417281 -82.195005 -2.713072 3.471054 37.423088 1.420915 8.755414 13.964485 4.410100 0.000000 -60.074300 9.693431 1.450070 2.817916 6.691889 -4.368065 -87.206817 3.311983 -5.659044 41.984573 0.399494 1.691775 6.251018 -0.249700 -0.000001 -81.071200
9.729642 18.621744 2.346910 74.354218 -86.205991 -17.419944 -9.150747 -0.309087 2.073828 -15.079737 -5.156797 -83.117842 -2.985333 3.387759 35.825319 1.275199 8.166451 14.035899 4.239600 0.000000 -60.267800 9.692328 1.482212 3.074850 5.997857 -3.958674 -88.704414 3.460449 -5.602240 40.954056 0.554556 2.323493 6.208262 -0.071100 0.000001 -81.077101
9.614823 18.565211 2.331332 77.599141 -86.083912 -19.983197 -9.124236 -0.265734 2.165341 -15.363795 -5.899159 -83.981575 -3.272130 3.279012 34.152583 1.132264 7.593191 14.011345 4.062900 0.000000 -60.569100 9.696478 1.511541 3.326478 5.326088 -3.588887 -90.127253 3.617543 -5.528262 39.890031 0.715553 2.979153 6.083282 0.115000 -0.000000 -81.064200
9.497556 18.496102 2.315620 80.594234 -85.960695 -22.312313 -9.099520 -0.213539 2.281387 -15.610446 -6.641588 -84.809268 -3.571522 3.148663 32.434595 0.988201 7.018710 13.927416 3.878300 -0.000000 -60.908100 9.708394 1.539003 3.573489 4.689352 -3.264073 -91.505985 3.779177 -5.445609 38.833658 0.879011 3.641318 5.908069 0.301899 0.000000 -80.974500
9.378399 18.414817 2.300099 83.170656 -85.838259 -24.237538 -9.077038 -0.156854 2.421599 -15.813842 -7.380601 -85.626962 -3.877302 3.000614 30.693685 0.839497 6.435021 13.871817 3.691300 0.000001 -61.330900 9.728359 1.561853 3.811385 4.120961 -2.985733 -92.861310 3.943684 -5.362254 37.803646 1.041221 4.284639 5.764405 0.483900 0.000000 -80.861600
9.257689 18.321706 2.284795 85.300197 -85.718132 -25.732990 -9.058179 -0.098110 2.582497 -15.982975 -8.109060 -86.449905 -4.184595 2.841123 28.952615 0.681693 5.833083 13.934965 3.504500 -0.000001 -61.762799 9.757379 1.577565 4.036487 3.647893 -2.752549 -94.212280 4.107294 -5.287010 36.823612 1.199438 4.887170 5.745705 0.659701 -0.000000 -80.768401
9.135770 18.217302 2.270320 86.852900 -85.605728 -26.671202 -9.046637 -0.043250 2.759815 -16.115900 -8.819663 -87.286036 -4.485329 2.675301 27.221059 0.513115 5.222073 14.236341 3.327800 -0.000000 -62.484000 9.794463 1.581288 4.241664 3.306678 -2.558711 -95.565099 4.268548 -5.227183 35.899354 1.351588 5.427753 5.962413 0.832100 0.000000 -80.868900
9.012832 18.102002 2.256763 87.897359 -85.505405 -27.130210 -9.044564 0.005867 2.945838 -16.228301 -9.500132 -88.128118 -4.774574 2.510486 25.516821 0.332417 4.604639 14.852170 3.160200 -0.000000 -63.528000 9.839400 1.571337 4.421369 3.119046 -2.394408 -96.919532 4.423803 -5.189883 35.047978 1.497033 5.897341 6.501597 1.009000 -0.000000 -81.205600
8.889025 17.976003 2.243879 88.574711 -85.418846 -27.269567 -9.051461 0.050297 3.129928 -16.346973 -10.136267 -88.959579 -5.050149 2.357072 23.883472 0.138329 3.964860 15.778719 2.983600 0.000000 -64.444100 9.891603 1.548902 4.571952 3.089746 -2.248916 -98.264190 4.567733 -5.180645 34.294359 1.634626 6.294114 7.411291 1.198600 0.000000 -81.731700
8.764457 17.839575 2.232278 88.853655 -85.353267 -27.071697 -9.067771 0.085387 3.304880 -16.467537 -10.720781 -89.758421 -5.303165 2.218284 22.334901 -0.061304 3.328891 17.044640 2.799900 -0.000000 -65.680500 9.946191 1.513307 4.683952 3.237676 -2.110881 -99.574702 4.700444 -5.202429 33.645046 1.763821 6.625642 8.726349 1.410800 -0.000001 -82.508301
